<svg width="210" height="24" viewBox="0 0 210 24" fill="none" xmlns="http://www.w3.org/2000/svg">
<path fill-rule="evenodd" clip-rule="evenodd" d="M58.0957 15.7783C58.0273 17.2627 57.627 18.5737 56.8945 19.7114C56.1621 20.8491 55.1343 21.7305 53.811 22.3555C52.4878 22.9805 50.9766 23.293 49.2773 23.293C46.4746 23.293 44.2676 22.3799 42.6562 20.5537C41.0449 18.7275 40.2393 16.1494 40.2393 12.8193V11.7646C40.2393 9.67479 40.603 7.8462 41.3306 6.27881C42.0581 4.71142 43.1055 3.50049 44.4727 2.646C45.8399 1.7915 47.4219 1.36426 49.2188 1.36426C51.8067 1.36426 53.8867 2.0454 55.459 3.40771C57.0313 4.77003 57.9248 6.64745 58.1396 9.04004H53.0127C52.9736 7.7412 52.6465 6.8086 52.0312 6.24219C51.416 5.67578 50.4785 5.39258 49.2188 5.39258C47.9394 5.39258 47.002 5.87109 46.4062 6.82812C45.8105 7.78516 45.498 9.31347 45.4688 11.4131V12.9219C45.4688 15.1973 45.7544 16.8232 46.3257 17.7998C46.897 18.7764 47.8809 19.2646 49.2773 19.2646C50.459 19.2646 51.3623 18.9863 51.9873 18.4297C52.6123 17.873 52.9443 16.9893 52.9834 15.7783H58.0957ZM38.1885 12.7754C38.1885 14.8555 37.8027 16.6963 37.0312 18.2979C36.2598 19.8994 35.1636 21.1323 33.7427 21.9966C32.3218 22.8608 30.7031 23.293 28.8867 23.293C27.0703 23.293 25.459 22.8755 24.0527 22.0405C22.6465 21.2056 21.5503 20.0117 20.7642 18.459C19.978 16.9062 19.5654 15.124 19.5264 13.1123V11.9111C19.5264 9.82128 19.9097 7.97804 20.6763 6.38135C21.4429 4.78466 22.5415 3.55176 23.9722 2.68262C25.4028 1.81347 27.0312 1.37891 28.8574 1.37891C30.6641 1.37891 32.2754 1.80859 33.6914 2.66797C35.1074 3.52735 36.2085 4.75048 36.9946 6.3374C37.7808 7.92432 38.1787 9.74315 38.1885 11.7939V12.7754ZM5.69824 15.4707H8.48145L12.2461 23H17.7539V22.7803L13.3008 14.1816C14.5801 13.5762 15.52 12.7852 16.1206 11.8086C16.7212 10.832 17.0215 9.60157 17.0215 8.11719C17.0215 6.0664 16.3086 4.4795 14.8828 3.35645C13.457 2.23339 11.4795 1.67188 8.9502 1.67188H0.556641V23H5.69824V15.4707ZM8.9502 11.501H5.69824V5.6416H8.9502C9.917 5.6416 10.6494 5.90283 11.1475 6.42529C11.6455 6.94776 11.8945 7.66796 11.8945 8.58594C11.8945 9.50391 11.648 10.2192 11.1548 10.7319C10.6616 11.2446 9.92676 11.501 8.9502 11.501ZM31.897 7.05518C32.605 8.15381 32.959 9.76268 32.959 11.8818V12.8633C32.9492 14.9336 32.5928 16.5205 31.8896 17.624C31.1865 18.7275 30.1856 19.2793 28.8867 19.2793C27.5195 19.2793 26.4893 18.7178 25.7959 17.5947C25.1025 16.4717 24.7559 14.8652 24.7559 12.7754L24.7705 11.208C24.917 7.3408 26.2793 5.40723 28.8574 5.40723C30.1758 5.40723 31.189 5.95654 31.897 7.05518ZM65.6689 17.375L67.7783 15.0605L72.3193 23H78.4131L71.2061 11.1055L78.4131 1.67188H72.0557L67.4561 8.36621L65.6689 11.0762V1.67188H60.5273V23H65.6689V17.375ZM92.9443 13.9619H84.8584V19.0449H94.4092V23H79.7168V1.67188H94.4385V5.6416H84.8584V10.1387H92.9443V13.9619ZM107.139 5.6416H113.54V1.67188H95.7129V5.6416H101.997V23H107.139V5.6416ZM126.475 17.3311C126.475 16.5791 126.208 15.9932 125.676 15.5732C125.144 15.1533 124.209 14.7188 122.871 14.2695C121.533 13.8203 120.439 13.3857 119.59 12.9658C116.826 11.6084 115.444 9.74318 115.444 7.37012C115.444 6.18847 115.789 5.146 116.477 4.24268C117.166 3.33935 118.14 2.63623 119.399 2.1333C120.659 1.63037 122.075 1.37891 123.647 1.37891C125.181 1.37891 126.555 1.65234 127.771 2.19922C128.987 2.7461 129.932 3.5249 130.605 4.53564C131.279 5.54639 131.616 6.70117 131.616 8H126.489C126.489 7.13086 126.223 6.45703 125.691 5.97852C125.159 5.5 124.438 5.26074 123.53 5.26074C122.612 5.26074 121.887 5.46338 121.355 5.86865C120.823 6.27393 120.557 6.78906 120.557 7.41406C120.557 7.96094 120.85 8.45654 121.436 8.90088C122.021 9.34522 123.052 9.8042 124.526 10.2778C126.001 10.7515 127.212 11.2617 128.159 11.8086C130.464 13.1367 131.616 14.9678 131.616 17.3018C131.616 19.167 130.913 20.6318 129.507 21.6963C128.101 22.7607 126.172 23.293 123.721 23.293C121.992 23.293 120.427 22.9829 119.026 22.3628C117.625 21.7427 116.57 20.8931 115.862 19.814C115.154 18.7349 114.8 17.4922 114.8 16.0859H119.956C119.956 17.2285 120.251 18.0708 120.842 18.6128C121.433 19.1548 122.393 19.4258 123.721 19.4258C124.57 19.4258 125.242 19.2427 125.735 18.8765C126.228 18.5103 126.475 17.9951 126.475 17.3311ZM146.968 23H152.08V1.67188H146.968V10.1387H139.395V1.67188H134.253V23H139.395V14.0938H146.968V23ZM173.394 12.7754C173.394 14.8555 173.008 16.6963 172.236 18.2979C171.465 19.8994 170.369 21.1323 168.948 21.9966C167.527 22.8608 165.908 23.293 164.092 23.293C162.275 23.293 160.664 22.8755 159.258 22.0405C157.852 21.2056 156.755 20.0117 155.969 18.459C155.183 16.9062 154.771 15.124 154.731 13.1123V11.9111C154.731 9.82128 155.115 7.97804 155.881 6.38135C156.648 4.78466 157.747 3.55176 159.177 2.68262C160.608 1.81347 162.236 1.37891 164.062 1.37891C165.869 1.37891 167.48 1.80859 168.896 2.66797C170.312 3.52735 171.414 4.75048 172.2 6.3374C172.986 7.92432 173.384 9.74315 173.394 11.7939V12.7754ZM167.102 7.05518C167.81 8.15381 168.164 9.76268 168.164 11.8818V12.8633C168.154 14.9336 167.798 16.5205 167.095 17.624C166.392 18.7275 165.391 19.2793 164.092 19.2793C162.725 19.2793 161.694 18.7178 161.001 17.5947C160.308 16.4717 159.961 14.8652 159.961 12.7754L159.976 11.208C160.122 7.3408 161.484 5.40723 164.062 5.40723C165.381 5.40723 166.394 5.95654 167.102 7.05518ZM189.272 13.9619H181.187V19.0449H190.737V23H176.045V1.67188H190.767V5.6416H181.187V10.1387H189.272V13.9619ZM203.035 15.5732C203.567 15.9932 203.833 16.5791 203.833 17.3311C203.833 17.9951 203.586 18.5103 203.093 18.8765C202.6 19.2427 201.929 19.4258 201.079 19.4258C199.751 19.4258 198.792 19.1548 198.201 18.6128C197.61 18.0708 197.314 17.2285 197.314 16.0859H192.158C192.158 17.4922 192.512 18.7349 193.22 19.814C193.928 20.8931 194.983 21.7427 196.384 22.3628C197.786 22.9829 199.351 23.293 201.079 23.293C203.53 23.293 205.459 22.7607 206.865 21.6963C208.271 20.6318 208.975 19.167 208.975 17.3018C208.975 14.9678 207.822 13.1367 205.518 11.8086C204.57 11.2617 203.359 10.7515 201.885 10.2778C200.41 9.8042 199.38 9.34522 198.794 8.90088C198.208 8.45654 197.915 7.96094 197.915 7.41406C197.915 6.78906 198.181 6.27393 198.713 5.86865C199.246 5.46338 199.971 5.26074 200.889 5.26074C201.797 5.26074 202.517 5.5 203.049 5.97852C203.582 6.45703 203.848 7.13086 203.848 8H208.975C208.975 6.70117 208.638 5.54639 207.964 4.53564C207.29 3.5249 206.345 2.7461 205.129 2.19922C203.914 1.65234 202.539 1.37891 201.006 1.37891C199.434 1.37891 198.018 1.63037 196.758 2.1333C195.498 2.63623 194.524 3.33935 193.835 4.24268C193.147 5.146 192.803 6.18847 192.803 7.37012C192.803 9.74318 194.185 11.6084 196.948 12.9658C197.798 13.3857 198.892 13.8203 200.229 14.2695C201.567 14.7188 202.502 15.1533 203.035 15.5732Z" fill="white"/>
<path d="M58.0957 15.7783L58.5952 15.8013L58.6193 15.2783H58.0957V15.7783ZM41.3306 6.27881L41.7841 6.48932L41.7841 6.48932L41.3306 6.27881ZM55.459 3.40771L55.1316 3.7856L55.1316 3.7856L55.459 3.40771ZM58.1396 9.04004V9.54004H58.6866L58.6376 8.99532L58.1396 9.04004ZM53.0127 9.04004L52.5129 9.05507L52.5275 9.54004H53.0127V9.04004ZM45.4688 11.4131L44.9688 11.4061V11.4131H45.4688ZM46.3257 17.7998L46.7573 17.5473L46.7573 17.5473L46.3257 17.7998ZM52.9834 15.7783V15.2783H52.4993L52.4837 15.7622L52.9834 15.7783ZM19.5264 13.1123L19.0263 13.1123L19.0265 13.122L19.5264 13.1123ZM23.9722 2.68262L24.2318 3.10994L24.2318 3.10994L23.9722 2.68262ZM38.1885 11.7939L38.6885 11.7939L38.6885 11.7916L38.1885 11.7939ZM8.48145 15.4707L8.92866 15.2471L8.79046 14.9707H8.48145V15.4707ZM5.69824 15.4707V14.9707H5.19824V15.4707H5.69824ZM12.2461 23L11.7989 23.2236L11.9371 23.5H12.2461V23ZM17.7539 23V23.5H18.2539V23H17.7539ZM17.7539 22.7803H18.2539V22.6585L18.1979 22.5503L17.7539 22.7803ZM13.3008 14.1816L13.0869 13.7297L12.6185 13.9514L12.8568 14.4116L13.3008 14.1816ZM16.1206 11.8086L15.6947 11.5467L15.6947 11.5467L16.1206 11.8086ZM14.8828 3.35645L15.1922 2.96366L15.1922 2.96366L14.8828 3.35645ZM0.556641 1.67188V1.17188H0.0566406V1.67188H0.556641ZM0.556641 23H0.0566406V23.5H0.556641V23ZM5.69824 23V23.5H6.19824V23H5.69824ZM5.69824 11.501H5.19824V12.001H5.69824V11.501ZM5.69824 5.6416V5.1416H5.19824V5.6416H5.69824ZM32.959 12.8633L33.459 12.8656V12.8633H32.959ZM24.7559 12.7754L24.2559 12.7707V12.7754H24.7559ZM24.7705 11.208L24.2709 11.1891L24.2706 11.1962L24.2705 11.2033L24.7705 11.208ZM67.7783 15.0605L68.2123 14.8123L67.8714 14.2162L67.4088 14.7237L67.7783 15.0605ZM65.6689 17.375L65.2994 17.0382L65.1689 17.1813V17.375H65.6689ZM72.3193 23L71.8853 23.2482L72.0293 23.5H72.3193V23ZM78.4131 23V23.5H79.3007L78.8407 22.7409L78.4131 23ZM71.2061 11.1055L70.8087 10.8019L70.6017 11.0729L70.7784 11.3646L71.2061 11.1055ZM78.4131 1.67188L78.8104 1.97542L79.4243 1.17188H78.4131V1.67188ZM72.0557 1.67188V1.17188H71.7926L71.6436 1.38873L72.0557 1.67188ZM67.4561 8.36621L67.0439 8.08301L67.0386 8.09095L67.4561 8.36621ZM65.6689 11.0762H65.1689V12.7426L66.0864 11.3514L65.6689 11.0762ZM65.6689 1.67188H66.1689V1.17188H65.6689V1.67188ZM60.5273 1.67188V1.17188H60.0273V1.67188H60.5273ZM60.5273 23H60.0273V23.5H60.5273V23ZM65.6689 23V23.5H66.1689V23H65.6689ZM84.8584 13.9619V13.4619H84.3584V13.9619H84.8584ZM92.9443 13.9619V14.4619H93.4443V13.9619H92.9443ZM84.8584 19.0449H84.3584V19.5449H84.8584V19.0449ZM94.4092 19.0449H94.9092V18.5449H94.4092V19.0449ZM94.4092 23V23.5H94.9092V23H94.4092ZM79.7168 23H79.2168V23.5H79.7168V23ZM79.7168 1.67188V1.17188H79.2168V1.67188H79.7168ZM94.4385 1.67188H94.9385V1.17188H94.4385V1.67188ZM94.4385 5.6416V6.1416H94.9385V5.6416H94.4385ZM84.8584 5.6416V5.1416H84.3584V5.6416H84.8584ZM84.8584 10.1387H84.3584V10.6387H84.8584V10.1387ZM92.9443 10.1387H93.4443V9.63867H92.9443V10.1387ZM113.54 5.6416V6.1416H114.04V5.6416H113.54ZM107.139 5.6416V5.1416H106.639V5.6416H107.139ZM113.54 1.67188H114.04V1.17188H113.54V1.67188ZM95.7129 1.67188V1.17188H95.2129V1.67188H95.7129ZM95.7129 5.6416H95.2129V6.1416H95.7129V5.6416ZM101.997 5.6416H102.497V5.1416H101.997V5.6416ZM101.997 23H101.497V23.5H101.997V23ZM107.139 23V23.5H107.639V23H107.139ZM119.59 12.9658L119.811 12.5176L119.81 12.517L119.59 12.9658ZM127.771 2.19922L127.976 1.74322L127.976 1.74322L127.771 2.19922ZM130.605 4.53564L130.189 4.81299L130.189 4.81299L130.605 4.53564ZM131.616 8V8.5H132.116V8H131.616ZM126.489 8H125.989V8.5H126.489V8ZM128.159 11.8086L127.909 12.2416L127.91 12.2418L128.159 11.8086ZM129.507 21.6963L129.809 22.095L129.809 22.095L129.507 21.6963ZM114.8 16.0859V15.5859H114.3V16.0859H114.8ZM119.956 16.0859H120.456V15.5859H119.956V16.0859ZM152.08 23V23.5H152.58V23H152.08ZM146.968 23H146.468V23.5H146.968V23ZM152.08 1.67188H152.58V1.17188H152.08V1.67188ZM146.968 1.67188V1.17188H146.468V1.67188H146.968ZM146.968 10.1387V10.6387H147.468V10.1387H146.968ZM139.395 10.1387H138.895V10.6387H139.395V10.1387ZM139.395 1.67188H139.895V1.17188H139.395V1.67188ZM134.253 1.67188V1.17188H133.753V1.67188H134.253ZM134.253 23H133.753V23.5H134.253V23ZM139.395 23V23.5H139.895V23H139.395ZM139.395 14.0938V13.5938H138.895V14.0938H139.395ZM146.968 14.0938H147.468V13.5938H146.968V14.0938ZM154.731 13.1123L154.231 13.1123L154.232 13.122L154.731 13.1123ZM159.177 2.68262L159.437 3.10994L159.437 3.10994L159.177 2.68262ZM173.394 11.7939L173.894 11.7939L173.894 11.7916L173.394 11.7939ZM168.164 12.8633L168.664 12.8656V12.8633H168.164ZM159.961 12.7754L159.461 12.7707V12.7754H159.961ZM159.976 11.208L159.476 11.1891L159.476 11.1962L159.476 11.2033L159.976 11.208ZM181.187 13.9619V13.4619H180.687V13.9619H181.187ZM189.272 13.9619V14.4619H189.772V13.9619H189.272ZM181.187 19.0449H180.687V19.5449H181.187V19.0449ZM190.737 19.0449H191.237V18.5449H190.737V19.0449ZM190.737 23V23.5H191.237V23H190.737ZM176.045 23H175.545V23.5H176.045V23ZM176.045 1.67188V1.17188H175.545V1.67188H176.045ZM190.767 1.67188H191.267V1.17188H190.767V1.67188ZM190.767 5.6416V6.1416H191.267V5.6416H190.767ZM181.187 5.6416V5.1416H180.687V5.6416H181.187ZM181.187 10.1387H180.687V10.6387H181.187V10.1387ZM189.272 10.1387H189.772V9.63867H189.272V10.1387ZM197.314 16.0859H197.814V15.5859H197.314V16.0859ZM192.158 16.0859V15.5859H191.658V16.0859H192.158ZM205.518 11.8086L205.268 12.2416L205.268 12.2418L205.518 11.8086ZM203.848 8H203.348V8.5H203.848V8ZM208.975 8V8.5H209.475V8H208.975ZM207.964 4.53564L207.548 4.81299L207.548 4.81299L207.964 4.53564ZM196.948 12.9658L197.17 12.5176L197.169 12.517L196.948 12.9658ZM57.3149 19.9821C58.0997 18.7631 58.5232 17.3649 58.5952 15.8013L57.5962 15.7553C57.5315 17.1605 57.1542 18.3844 56.4741 19.4408L57.3149 19.9821ZM54.0246 22.8076C55.4252 22.146 56.5278 21.2048 57.3149 19.9821L56.4741 19.4408C55.7964 20.4934 54.8433 21.3149 53.5975 21.9034L54.0246 22.8076ZM49.2773 23.793C51.0386 23.793 52.6246 23.4688 54.0246 22.8076L53.5975 21.9034C52.351 22.4921 50.9146 22.793 49.2773 22.793V23.793ZM42.2813 20.8845C44.0024 22.835 46.3551 23.793 49.2773 23.793V22.793C46.5941 22.793 44.5328 21.9248 43.0312 20.2229L42.2813 20.8845ZM39.7393 12.8193C39.7393 16.2263 40.5639 18.9381 42.2813 20.8845L43.0312 20.2229C41.5259 18.5169 40.7393 16.0726 40.7393 12.8193H39.7393ZM39.7393 11.7646V12.8193H40.7393V11.7646H39.7393ZM40.877 6.06829C40.1132 7.71398 39.7393 9.61704 39.7393 11.7646H40.7393C40.7393 9.73255 41.0929 7.97842 41.7841 6.48932L40.877 6.06829ZM44.2077 2.222C42.7523 3.1316 41.6423 4.41958 40.877 6.06829L41.7841 6.48932C42.4739 5.00326 43.4586 3.86938 44.7377 3.07L44.2077 2.222ZM49.2188 0.864258C47.3392 0.864258 45.6632 1.31228 44.2077 2.222L44.7377 3.07C46.0165 2.27072 47.5045 1.86426 49.2188 1.86426V0.864258ZM55.7864 3.02983C54.1026 1.57091 51.8965 0.864258 49.2188 0.864258V1.86426C51.7168 1.86426 53.6708 2.5199 55.1316 3.7856L55.7864 3.02983ZM58.6376 8.99532C58.4132 6.49527 57.4717 4.49007 55.7864 3.02983L55.1316 3.7856C56.5908 5.04998 57.4365 6.79963 57.6417 9.08476L58.6376 8.99532ZM53.0127 9.54004H58.1396V8.54004H53.0127V9.54004ZM51.6926 6.61004C52.1657 7.04561 52.4757 7.81792 52.5129 9.05507L53.5125 9.02501C53.4716 7.66449 53.1273 6.57159 52.3699 5.87434L51.6926 6.61004ZM49.2188 5.89258C50.415 5.89258 51.2069 6.16286 51.6926 6.61004L52.3699 5.87434C51.6252 5.18869 50.5421 4.89258 49.2188 4.89258V5.89258ZM46.8307 7.09235C47.3215 6.30393 48.0846 5.89258 49.2188 5.89258V4.89258C47.7943 4.89258 46.6824 5.43825 45.9818 6.5639L46.8307 7.09235ZM45.9687 11.4201C45.9977 9.34494 46.3091 7.93039 46.8307 7.09235L45.9818 6.5639C45.312 7.63993 44.9984 9.28199 44.9688 11.4061L45.9687 11.4201ZM45.9688 12.9219V11.4131H44.9688V12.9219H45.9688ZM46.7573 17.5473C46.2571 16.6923 45.9688 15.1816 45.9688 12.9219H44.9688C44.9688 15.2129 45.2517 16.9541 45.8941 18.0523L46.7573 17.5473ZM49.2773 18.7646C48.0099 18.7646 47.2168 18.3329 46.7573 17.5473L45.8941 18.0523C46.5772 19.2199 47.7518 19.7646 49.2773 19.7646V18.7646ZM51.6548 18.0563C51.1529 18.5032 50.3866 18.7646 49.2773 18.7646V19.7646C50.5314 19.7646 51.5717 19.4694 52.3198 18.8031L51.6548 18.0563ZM52.4837 15.7622C52.447 16.8981 52.1389 17.6251 51.6548 18.0563L52.3198 18.8031C53.0857 18.121 53.4417 17.0804 53.4831 15.7944L52.4837 15.7622ZM58.0957 15.2783H52.9834V16.2783H58.0957V15.2783ZM37.4817 18.5148C38.2909 16.835 38.6885 14.9179 38.6885 12.7754H37.6885C37.6885 14.7931 37.3146 16.5576 36.5808 18.0809L37.4817 18.5148ZM34.0025 22.4238C35.5117 21.5058 36.6713 20.1971 37.4817 18.5148L36.5808 18.0809C35.8482 19.6017 34.8155 20.7588 33.4828 21.5694L34.0025 22.4238ZM28.8867 23.793C30.786 23.793 32.4962 23.34 34.0025 22.4238L33.4828 21.5694C32.1474 22.3817 30.6202 22.793 28.8867 22.793V23.793ZM23.7975 22.4705C25.2893 23.3562 26.9907 23.793 28.8867 23.793V22.793C27.1499 22.793 25.6287 22.3948 24.308 21.6106L23.7975 22.4705ZM20.3181 18.6848C21.1443 20.3167 22.3042 21.5838 23.7975 22.4705L24.308 21.6106C22.9888 20.8273 21.9563 19.7068 21.2102 18.2331L20.3181 18.6848ZM19.0265 13.122C19.0668 15.1972 19.493 17.0553 20.3181 18.6848L21.2102 18.2331C20.463 16.7572 20.0641 15.0509 20.0263 13.1026L19.0265 13.122ZM19.0264 11.9111V13.1123H20.0264V11.9111H19.0264ZM20.2255 6.16494C19.4212 7.84026 19.0264 9.75973 19.0264 11.9111H20.0264C20.0264 9.88282 20.3982 8.11581 21.127 6.59776L20.2255 6.16494ZM23.7126 2.25529C22.1942 3.17772 21.0315 4.48624 20.2255 6.16494L21.127 6.59776C21.8542 5.08308 22.8888 3.9258 24.2318 3.10994L23.7126 2.25529ZM28.8574 0.878906C26.9483 0.878906 25.2285 1.33433 23.7126 2.25529L24.2318 3.10994C25.5771 2.29261 27.1142 1.87891 28.8574 1.87891V0.878906ZM33.9508 2.24053C32.4496 1.32942 30.747 0.878906 28.8574 0.878906V1.87891C30.5812 1.87891 32.1012 2.28776 33.432 3.09541L33.9508 2.24053ZM37.4427 6.11545C36.6175 4.44967 35.4536 3.15256 33.9508 2.24053L33.432 3.09541C34.7613 3.90213 35.7995 5.05129 36.5466 6.55935L37.4427 6.11545ZM38.6885 11.7916C38.6784 9.67661 38.2676 7.78067 37.4427 6.11545L36.5466 6.55935C37.2939 8.06798 37.679 9.8097 37.6885 11.7963L38.6885 11.7916ZM38.6885 12.7754V11.7939H37.6885V12.7754H38.6885ZM8.48145 14.9707H5.69824V15.9707H8.48145V14.9707ZM12.6933 22.7764L8.92866 15.2471L8.03423 15.6943L11.7989 23.2236L12.6933 22.7764ZM17.7539 22.5H12.2461V23.5H17.7539V22.5ZM17.2539 22.7803V23H18.2539V22.7803H17.2539ZM12.8568 14.4116L17.3099 23.0102L18.1979 22.5503L13.7448 13.9517L12.8568 14.4116ZM15.6947 11.5467C15.1556 12.4232 14.2992 13.1559 13.0869 13.7297L13.5147 14.6336C14.861 13.9964 15.8844 13.1471 16.5465 12.0705L15.6947 11.5467ZM16.5215 8.11719C16.5215 9.53586 16.2345 10.6689 15.6947 11.5467L16.5465 12.0705C17.2079 10.9951 17.5215 9.66728 17.5215 8.11719H16.5215ZM14.5734 3.74923C15.8622 4.76432 16.5215 6.19702 16.5215 8.11719H17.5215C17.5215 5.93577 16.7551 4.19467 15.1922 2.96366L14.5734 3.74923ZM8.9502 2.17188C11.4107 2.17188 13.2648 2.71843 14.5734 3.74923L15.1922 2.96366C13.6493 1.74836 11.5483 1.17188 8.9502 1.17188V2.17188ZM0.556641 2.17188H8.9502V1.17188H0.556641V2.17188ZM1.05664 23V1.67188H0.0566406V23H1.05664ZM5.69824 22.5H0.556641V23.5H5.69824V22.5ZM5.19824 15.4707V23H6.19824V15.4707H5.19824ZM5.69824 12.001H8.9502V11.001H5.69824V12.001ZM5.19824 5.6416V11.501H6.19824V5.6416H5.19824ZM8.9502 5.1416H5.69824V6.1416H8.9502V5.1416ZM11.5094 6.0803C10.8882 5.42865 10.0055 5.1416 8.9502 5.1416V6.1416C9.82848 6.1416 10.4106 6.37701 10.7856 6.77029L11.5094 6.0803ZM12.3945 8.58594C12.3945 7.57589 12.1183 6.71912 11.5094 6.0803L10.7856 6.77029C11.1727 7.17639 11.3945 7.76004 11.3945 8.58594H12.3945ZM11.5151 11.0786C12.1217 10.448 12.3945 9.59417 12.3945 8.58594H11.3945C11.3945 9.41365 11.1742 9.99051 10.7944 10.3853L11.5151 11.0786ZM8.9502 12.001C10.0106 12.001 10.8968 11.7214 11.5151 11.0786L10.7944 10.3853C10.4264 10.7679 9.84292 11.001 8.9502 11.001V12.001ZM33.459 11.8818C33.459 9.72071 33.1004 7.99956 32.3173 6.78433L31.4767 7.32603C32.1096 8.30807 32.459 9.80466 32.459 11.8818H33.459ZM33.459 12.8633V11.8818H32.459V12.8633H33.459ZM32.3113 17.8927C33.0867 16.6758 33.449 14.9802 33.459 12.8656L32.459 12.8609C32.4494 14.8871 32.0989 16.3652 31.468 17.3553L32.3113 17.8927ZM28.8867 19.7793C30.3579 19.7793 31.5172 19.139 32.3113 17.8927L31.468 17.3553C30.8558 18.3161 30.0132 18.7793 28.8867 18.7793V19.7793ZM25.3705 17.8574C26.1588 19.1343 27.3537 19.7793 28.8867 19.7793V18.7793C27.6853 18.7793 26.8197 18.3013 26.2213 17.3321L25.3705 17.8574ZM24.2559 12.7754C24.2559 14.9087 24.6077 16.6219 25.3705 17.8574L26.2213 17.3321C25.5974 16.3214 25.2559 14.8218 25.2559 12.7754H24.2559ZM24.2705 11.2033L24.2559 12.7707L25.2558 12.7801L25.2705 11.2127L24.2705 11.2033ZM28.8574 4.90723C27.4229 4.90723 26.2776 5.45629 25.4934 6.56944C24.7314 7.65088 24.3457 9.2144 24.2709 11.1891L25.2701 11.2269C25.3418 9.33441 25.7105 7.99753 26.3108 7.14539C26.8889 6.32495 27.7138 5.90723 28.8574 5.90723V4.90723ZM32.3173 6.78433C31.5162 5.54134 30.3439 4.90723 28.8574 4.90723V5.90723C30.0076 5.90723 30.8617 6.37173 31.4767 7.32603L32.3173 6.78433ZM67.4088 14.7237L65.2994 17.0382L66.0385 17.7118L68.1479 15.3973L67.4088 14.7237ZM72.7534 22.7518L68.2123 14.8123L67.3443 15.3088L71.8853 23.2482L72.7534 22.7518ZM78.4131 22.5H72.3193V23.5H78.4131V22.5ZM70.7784 11.3646L77.9855 23.2591L78.8407 22.7409L71.6337 10.8464L70.7784 11.3646ZM78.0158 1.36833L70.8087 10.8019L71.6034 11.409L78.8104 1.97542L78.0158 1.36833ZM72.0557 2.17188H78.4131V1.17188H72.0557V2.17188ZM67.8682 8.64936L72.4678 1.95502L71.6436 1.38873L67.044 8.08306L67.8682 8.64936ZM66.0864 11.3514L67.8735 8.64147L67.0386 8.09095L65.2515 10.8009L66.0864 11.3514ZM65.1689 1.67188V11.0762H66.1689V1.67188H65.1689ZM60.5273 2.17188H65.6689V1.17188H60.5273V2.17188ZM61.0273 23V1.67188H60.0273V23H61.0273ZM65.6689 22.5H60.5273V23.5H65.6689V22.5ZM65.1689 17.375V23H66.1689V17.375H65.1689ZM84.8584 14.4619H92.9443V13.4619H84.8584V14.4619ZM85.3584 19.0449V13.9619H84.3584V19.0449H85.3584ZM94.4092 18.5449H84.8584V19.5449H94.4092V18.5449ZM94.9092 23V19.0449H93.9092V23H94.9092ZM79.7168 23.5H94.4092V22.5H79.7168V23.5ZM79.2168 1.67188V23H80.2168V1.67188H79.2168ZM94.4385 1.17188H79.7168V2.17188H94.4385V1.17188ZM94.9385 5.6416V1.67188H93.9385V5.6416H94.9385ZM84.8584 6.1416H94.4385V5.1416H84.8584V6.1416ZM85.3584 10.1387V5.6416H84.3584V10.1387H85.3584ZM92.9443 9.63867H84.8584V10.6387H92.9443V9.63867ZM93.4443 13.9619V10.1387H92.4443V13.9619H93.4443ZM113.54 5.1416H107.139V6.1416H113.54V5.1416ZM113.04 1.67188V5.6416H114.04V1.67188H113.04ZM95.7129 2.17188H113.54V1.17188H95.7129V2.17188ZM96.2129 5.6416V1.67188H95.2129V5.6416H96.2129ZM101.997 5.1416H95.7129V6.1416H101.997V5.1416ZM102.497 23V5.6416H101.497V23H102.497ZM107.139 22.5H101.997V23.5H107.139V22.5ZM106.639 5.6416V23H107.639V5.6416H106.639ZM125.367 15.9658C125.764 16.2797 125.975 16.7131 125.975 17.3311H126.975C126.975 16.4451 126.653 15.7067 125.986 15.1807L125.367 15.9658ZM122.712 14.7435C124.041 15.1899 124.906 15.6025 125.367 15.9658L125.986 15.1807C125.382 14.7041 124.377 14.2476 123.03 13.7955L122.712 14.7435ZM119.368 13.4141C120.245 13.8475 121.362 14.2902 122.712 14.7435L123.03 13.7955C121.704 13.3504 120.634 12.924 119.811 12.5176L119.368 13.4141ZM114.944 7.37012C114.944 9.99291 116.495 12.0028 119.369 13.4146L119.81 12.517C117.157 11.214 115.944 9.49344 115.944 7.37012H114.944ZM116.079 3.93959C115.322 4.93371 114.944 6.08371 114.944 7.37012H115.944C115.944 6.29323 116.255 5.35829 116.875 4.54576L116.079 3.93959ZM119.214 1.66894C117.887 2.19887 116.833 2.95141 116.079 3.93959L116.875 4.54576C117.499 3.72729 118.393 3.0736 119.585 2.59766L119.214 1.66894ZM123.647 0.878906C122.022 0.878906 120.541 1.13903 119.214 1.66894L119.585 2.59766C120.777 2.12171 122.129 1.87891 123.647 1.87891V0.878906ZM127.976 1.74322C126.687 1.1633 125.241 0.878906 123.647 0.878906V1.87891C125.121 1.87891 126.424 2.14138 127.566 2.65521L127.976 1.74322ZM131.021 4.2583C130.291 3.16183 129.269 2.32476 127.976 1.74322L127.566 2.65521C128.705 3.16744 129.573 3.88797 130.189 4.81299L131.021 4.2583ZM132.116 8C132.116 6.60962 131.754 5.35695 131.021 4.2583L130.189 4.81299C130.805 5.73584 131.116 6.79271 131.116 8H132.116ZM126.489 8.5H131.616V7.5H126.489V8.5ZM125.357 6.35033C125.761 6.71401 125.989 7.2397 125.989 8H126.989C126.989 7.02201 126.685 6.20006 126.025 5.6067L125.357 6.35033ZM123.53 5.76074C124.349 5.76074 124.939 5.97473 125.357 6.35033L126.025 5.6067C125.379 5.02526 124.528 4.76074 123.53 4.76074V5.76074ZM121.658 6.26645C122.076 5.94824 122.682 5.76074 123.53 5.76074V4.76074C122.543 4.76074 121.699 4.97851 121.052 5.47085L121.658 6.26645ZM121.057 7.41406C121.057 6.95746 121.24 6.58488 121.658 6.26645L121.052 5.47085C120.406 5.96298 120.057 6.62065 120.057 7.41406H121.057ZM121.738 8.50248C121.23 8.11751 121.057 7.75427 121.057 7.41406H120.057C120.057 8.16761 120.469 8.79557 121.133 9.29928L121.738 8.50248ZM124.679 9.80178C123.212 9.33064 122.252 8.89232 121.738 8.50248L121.133 9.29928C121.791 9.79812 122.891 10.2778 124.373 10.7539L124.679 9.80178ZM128.409 11.3756C127.421 10.8053 126.175 10.2822 124.679 9.80178L124.373 10.7539C125.827 11.2208 127.002 11.7181 127.909 12.2416L128.409 11.3756ZM132.116 17.3018C132.116 14.7609 130.842 12.7778 128.409 11.3754L127.91 12.2418C130.085 13.4956 131.116 15.1746 131.116 17.3018H132.116ZM129.809 22.095C131.348 20.9298 132.116 19.3131 132.116 17.3018H131.116C131.116 19.0209 130.478 20.3338 129.205 21.2976L129.809 22.095ZM123.721 23.793C126.239 23.793 128.287 23.2465 129.809 22.095L129.205 21.2976C127.914 22.275 126.105 22.793 123.721 22.793V23.793ZM118.824 22.82C120.296 23.4717 121.931 23.793 123.721 23.793V22.793C122.053 22.793 120.558 22.4941 119.228 21.9056L118.824 22.82ZM115.444 20.0883C116.214 21.2619 117.351 22.1684 118.824 22.82L119.228 21.9056C117.898 21.317 116.926 20.5243 116.28 19.5397L115.444 20.0883ZM114.3 16.0859C114.3 17.5806 114.678 18.9204 115.444 20.0883L116.28 19.5397C115.63 18.5493 115.3 17.4038 115.3 16.0859H114.3ZM119.956 15.5859H114.8V16.5859H119.956V15.5859ZM121.18 18.2443C120.73 17.8316 120.456 17.1493 120.456 16.0859H119.456C119.456 17.3078 119.773 18.31 120.504 18.9812L121.18 18.2443ZM123.721 18.9258C122.441 18.9258 121.635 18.6611 121.18 18.2443L120.504 18.9812C121.232 19.6484 122.344 19.9258 123.721 19.9258V18.9258ZM125.437 18.475C125.057 18.7568 124.503 18.9258 123.721 18.9258V19.9258C124.637 19.9258 125.426 19.7286 126.033 19.2779L125.437 18.475ZM125.975 17.3311C125.975 17.8518 125.791 18.2117 125.437 18.475L126.033 19.2779C126.665 18.8088 126.975 18.1384 126.975 17.3311H125.975ZM152.08 22.5H146.968V23.5H152.08V22.5ZM151.58 1.67188V23H152.58V1.67188H151.58ZM146.968 2.17188H152.08V1.17188H146.968V2.17188ZM147.468 10.1387V1.67188H146.468V10.1387H147.468ZM139.395 10.6387H146.968V9.63867H139.395V10.6387ZM138.895 1.67188V10.1387H139.895V1.67188H138.895ZM134.253 2.17188H139.395V1.17188H134.253V2.17188ZM134.753 23V1.67188H133.753V23H134.753ZM139.395 22.5H134.253V23.5H139.395V22.5ZM138.895 14.0938V23H139.895V14.0938H138.895ZM146.968 13.5938H139.395V14.5938H146.968V13.5938ZM147.468 23V14.0938H146.468V23H147.468ZM172.687 18.5148C173.496 16.835 173.894 14.9179 173.894 12.7754H172.894C172.894 14.7931 172.52 16.5576 171.786 18.0809L172.687 18.5148ZM169.208 22.4238C170.717 21.5058 171.876 20.1971 172.687 18.5148L171.786 18.0809C171.053 19.6017 170.021 20.7588 168.688 21.5694L169.208 22.4238ZM164.092 23.793C165.991 23.793 167.701 23.34 169.208 22.4238L168.688 21.5694C167.352 22.3817 165.825 22.793 164.092 22.793V23.793ZM159.003 22.4705C160.494 23.3562 162.196 23.793 164.092 23.793V22.793C162.355 22.793 160.834 22.3948 159.513 21.6106L159.003 22.4705ZM155.523 18.6848C156.349 20.3167 157.509 21.5838 159.003 22.4705L159.513 21.6106C158.194 20.8273 157.161 19.7068 156.415 18.2331L155.523 18.6848ZM154.232 13.122C154.272 15.1972 154.698 17.0553 155.523 18.6848L156.415 18.2331C155.668 16.7572 155.269 15.0509 155.231 13.1026L154.232 13.122ZM154.231 11.9111V13.1123H155.231V11.9111H154.231ZM155.431 6.16494C154.626 7.84026 154.231 9.75973 154.231 11.9111H155.231C155.231 9.88282 155.603 8.11581 156.332 6.59776L155.431 6.16494ZM158.918 2.25529C157.399 3.17772 156.237 4.48624 155.431 6.16494L156.332 6.59776C157.059 5.08308 158.094 3.9258 159.437 3.10994L158.918 2.25529ZM164.062 0.878906C162.153 0.878906 160.434 1.33433 158.918 2.25529L159.437 3.10994C160.782 2.29261 162.319 1.87891 164.062 1.87891V0.878906ZM169.156 2.24053C167.655 1.32942 165.952 0.878906 164.062 0.878906V1.87891C165.786 1.87891 167.306 2.28776 168.637 3.09541L169.156 2.24053ZM172.648 6.11545C171.823 4.44967 170.659 3.15256 169.156 2.24053L168.637 3.09541C169.966 3.90213 171.005 5.05129 171.752 6.55935L172.648 6.11545ZM173.894 11.7916C173.883 9.67661 173.473 7.78067 172.648 6.11545L171.752 6.55935C172.499 8.06798 172.884 9.8097 172.894 11.7963L173.894 11.7916ZM173.894 12.7754V11.7939H172.894V12.7754H173.894ZM168.664 11.8818C168.664 9.72071 168.305 7.99956 167.522 6.78433L166.682 7.32603C167.315 8.30807 167.664 9.80466 167.664 11.8818H168.664ZM168.664 12.8633V11.8818H167.664V12.8633H168.664ZM167.516 17.8927C168.292 16.6758 168.654 14.9802 168.664 12.8656L167.664 12.8609C167.655 14.8871 167.304 16.3652 166.673 17.3553L167.516 17.8927ZM164.092 19.7793C165.563 19.7793 166.722 19.139 167.516 17.8927L166.673 17.3553C166.061 18.3161 165.218 18.7793 164.092 18.7793V19.7793ZM160.576 17.8574C161.364 19.1343 162.559 19.7793 164.092 19.7793V18.7793C162.89 18.7793 162.025 18.3013 161.426 17.3321L160.576 17.8574ZM159.461 12.7754C159.461 14.9087 159.813 16.6219 160.576 17.8574L161.426 17.3321C160.802 16.3214 160.461 14.8218 160.461 12.7754H159.461ZM159.476 11.2033L159.461 12.7707L160.461 12.7801L160.476 11.2127L159.476 11.2033ZM164.062 4.90723C162.628 4.90723 161.483 5.45629 160.698 6.56944C159.937 7.65088 159.551 9.2144 159.476 11.1891L160.475 11.2269C160.547 9.33441 160.916 7.99753 161.516 7.14539C162.094 6.32495 162.919 5.90723 164.062 5.90723V4.90723ZM167.522 6.78433C166.721 5.54134 165.549 4.90723 164.062 4.90723V5.90723C165.213 5.90723 166.067 6.37173 166.682 7.32603L167.522 6.78433ZM181.187 14.4619H189.272V13.4619H181.187V14.4619ZM181.687 19.0449V13.9619H180.687V19.0449H181.687ZM190.737 18.5449H181.187V19.5449H190.737V18.5449ZM191.237 23V19.0449H190.237V23H191.237ZM176.045 23.5H190.737V22.5H176.045V23.5ZM175.545 1.67188V23H176.545V1.67188H175.545ZM190.767 1.17188H176.045V2.17188H190.767V1.17188ZM191.267 5.6416V1.67188H190.267V5.6416H191.267ZM181.187 6.1416H190.767V5.1416H181.187V6.1416ZM181.687 10.1387V5.6416H180.687V10.1387H181.687ZM189.272 9.63867H181.187V10.6387H189.272V9.63867ZM189.772 13.9619V10.1387H188.772V13.9619H189.772ZM204.333 17.3311C204.333 16.4451 204.011 15.7067 203.344 15.1807L202.725 15.9658C203.123 16.2797 203.333 16.7131 203.333 17.3311H204.333ZM203.391 19.2779C204.023 18.8088 204.333 18.1384 204.333 17.3311H203.333C203.333 17.8518 203.15 18.2117 202.795 18.475L203.391 19.2779ZM201.079 19.9258C201.996 19.9258 202.784 19.7286 203.391 19.2779L202.795 18.475C202.416 18.7568 201.862 18.9258 201.079 18.9258V19.9258ZM197.863 18.9812C198.59 19.6484 199.703 19.9258 201.079 19.9258V18.9258C199.799 18.9258 198.993 18.6611 198.539 18.2443L197.863 18.9812ZM196.814 16.0859C196.814 17.3078 197.131 18.31 197.863 18.9812L198.539 18.2443C198.089 17.8316 197.814 17.1493 197.814 16.0859H196.814ZM192.158 16.5859H197.314V15.5859H192.158V16.5859ZM193.638 19.5397C192.989 18.5493 192.658 17.4038 192.658 16.0859H191.658C191.658 17.5806 192.036 18.9204 192.802 20.0883L193.638 19.5397ZM196.587 21.9056C195.257 21.317 194.284 20.5243 193.638 19.5397L192.802 20.0883C193.572 21.2619 194.709 22.1684 196.182 22.82L196.587 21.9056ZM201.079 22.793C199.411 22.793 197.917 22.4941 196.587 21.9056L196.182 22.82C197.655 23.4717 199.29 23.793 201.079 23.793V22.793ZM206.563 21.2976C205.272 22.275 203.463 22.793 201.079 22.793V23.793C203.598 23.793 205.646 23.2465 207.167 22.095L206.563 21.2976ZM208.475 17.3018C208.475 19.0209 207.837 20.3338 206.563 21.2976L207.167 22.095C208.706 20.9298 209.475 19.3131 209.475 17.3018H208.475ZM205.268 12.2418C207.444 13.4956 208.475 15.1746 208.475 17.3018H209.475C209.475 14.7609 208.201 12.7778 205.767 11.3754L205.268 12.2418ZM201.732 10.7539C203.185 11.2208 204.361 11.7181 205.268 12.2416L205.768 11.3756C204.78 10.8053 203.533 10.2822 202.038 9.80179L201.732 10.7539ZM198.492 9.29928C199.15 9.79812 200.249 10.2778 201.732 10.7539L202.038 9.80179C200.571 9.33064 199.61 8.89231 199.096 8.50248L198.492 9.29928ZM197.415 7.41406C197.415 8.16761 197.828 8.79557 198.492 9.29928L199.096 8.50248C198.588 8.11751 198.415 7.75427 198.415 7.41406H197.415ZM198.41 5.47085C197.764 5.96298 197.415 6.62065 197.415 7.41406H198.415C198.415 6.95746 198.598 6.58488 199.016 6.26645L198.41 5.47085ZM200.889 4.76074C199.901 4.76074 199.057 4.97851 198.41 5.47085L199.016 6.26645C199.434 5.94824 200.04 5.76074 200.889 5.76074V4.76074ZM203.384 5.6067C202.737 5.02526 201.886 4.76074 200.889 4.76074V5.76074C201.708 5.76074 202.297 5.97473 202.715 6.35033L203.384 5.6067ZM204.348 8C204.348 7.02201 204.044 6.20006 203.384 5.6067L202.715 6.35033C203.12 6.71401 203.348 7.2397 203.348 8H204.348ZM208.975 7.5H203.848V8.5H208.975V7.5ZM207.548 4.81299C208.163 5.73584 208.475 6.79271 208.475 8H209.475C209.475 6.60962 209.112 5.35695 208.38 4.2583L207.548 4.81299ZM204.924 2.65521C206.063 3.16744 206.931 3.88797 207.548 4.81299L208.38 4.2583C207.649 3.16183 206.627 2.32476 205.335 1.74322L204.924 2.65521ZM201.006 1.87891C202.479 1.87891 203.782 2.14138 204.924 2.65521L205.335 1.74322C204.045 1.1633 202.599 0.878906 201.006 0.878906V1.87891ZM196.943 2.59766C198.135 2.12171 199.487 1.87891 201.006 1.87891V0.878906C199.38 0.878906 197.9 1.13903 196.572 1.66894L196.943 2.59766ZM194.233 4.54576C194.857 3.72729 195.751 3.0736 196.943 2.59766L196.572 1.66894C195.245 2.19887 194.191 2.95141 193.438 3.93959L194.233 4.54576ZM193.303 7.37012C193.303 6.29323 193.614 5.35829 194.233 4.54576L193.438 3.93959C192.68 4.93371 192.303 6.08371 192.303 7.37012H193.303ZM197.169 12.517C194.516 11.214 193.303 9.49344 193.303 7.37012H192.303C192.303 9.99291 193.853 12.0028 196.728 13.4146L197.169 12.517ZM200.389 13.7955C199.063 13.3504 197.992 12.924 197.17 12.5176L196.727 13.4141C197.604 13.8475 198.72 14.2902 200.07 14.7435L200.389 13.7955ZM203.344 15.1807C202.74 14.7041 201.735 14.2476 200.389 13.7955L200.07 14.7435C201.4 15.1899 202.265 15.6025 202.725 15.9658L203.344 15.1807Z" fill="black"/>
<path d="M58.0957 15.7783L58.5952 15.8013L58.6193 15.2783H58.0957V15.7783ZM41.3306 6.27881L41.7841 6.48932L41.7841 6.48932L41.3306 6.27881ZM55.459 3.40771L55.1316 3.7856L55.1316 3.7856L55.459 3.40771ZM58.1396 9.04004V9.54004H58.6866L58.6376 8.99532L58.1396 9.04004ZM53.0127 9.04004L52.5129 9.05507L52.5275 9.54004H53.0127V9.04004ZM45.4688 11.4131L44.9688 11.4061V11.4131H45.4688ZM46.3257 17.7998L46.7573 17.5473L46.7573 17.5473L46.3257 17.7998ZM52.9834 15.7783V15.2783H52.4993L52.4837 15.7622L52.9834 15.7783ZM19.5264 13.1123L19.0263 13.1123L19.0265 13.122L19.5264 13.1123ZM23.9722 2.68262L24.2318 3.10994L24.2318 3.10994L23.9722 2.68262ZM38.1885 11.7939L38.6885 11.7939L38.6885 11.7916L38.1885 11.7939ZM8.48145 15.4707L8.92866 15.2471L8.79046 14.9707H8.48145V15.4707ZM5.69824 15.4707V14.9707H5.19824V15.4707H5.69824ZM12.2461 23L11.7989 23.2236L11.9371 23.5H12.2461V23ZM17.7539 23V23.5H18.2539V23H17.7539ZM17.7539 22.7803H18.2539V22.6585L18.1979 22.5503L17.7539 22.7803ZM13.3008 14.1816L13.0869 13.7297L12.6185 13.9514L12.8568 14.4116L13.3008 14.1816ZM16.1206 11.8086L15.6947 11.5467L15.6947 11.5467L16.1206 11.8086ZM14.8828 3.35645L15.1922 2.96366L15.1922 2.96366L14.8828 3.35645ZM0.556641 1.67188V1.17188H0.0566406V1.67188H0.556641ZM0.556641 23H0.0566406V23.5H0.556641V23ZM5.69824 23V23.5H6.19824V23H5.69824ZM5.69824 11.501H5.19824V12.001H5.69824V11.501ZM5.69824 5.6416V5.1416H5.19824V5.6416H5.69824ZM32.959 12.8633L33.459 12.8656V12.8633H32.959ZM24.7559 12.7754L24.2559 12.7707V12.7754H24.7559ZM24.7705 11.208L24.2709 11.1891L24.2706 11.1962L24.2705 11.2033L24.7705 11.208ZM67.7783 15.0605L68.2123 14.8123L67.8714 14.2162L67.4088 14.7237L67.7783 15.0605ZM65.6689 17.375L65.2994 17.0382L65.1689 17.1813V17.375H65.6689ZM72.3193 23L71.8853 23.2482L72.0293 23.5H72.3193V23ZM78.4131 23V23.5H79.3007L78.8407 22.7409L78.4131 23ZM71.2061 11.1055L70.8087 10.8019L70.6017 11.0729L70.7784 11.3646L71.2061 11.1055ZM78.4131 1.67188L78.8104 1.97542L79.4243 1.17188H78.4131V1.67188ZM72.0557 1.67188V1.17188H71.7926L71.6436 1.38873L72.0557 1.67188ZM67.4561 8.36621L67.0439 8.08301L67.0386 8.09095L67.4561 8.36621ZM65.6689 11.0762H65.1689V12.7426L66.0864 11.3514L65.6689 11.0762ZM65.6689 1.67188H66.1689V1.17188H65.6689V1.67188ZM60.5273 1.67188V1.17188H60.0273V1.67188H60.5273ZM60.5273 23H60.0273V23.5H60.5273V23ZM65.6689 23V23.5H66.1689V23H65.6689ZM84.8584 13.9619V13.4619H84.3584V13.9619H84.8584ZM92.9443 13.9619V14.4619H93.4443V13.9619H92.9443ZM84.8584 19.0449H84.3584V19.5449H84.8584V19.0449ZM94.4092 19.0449H94.9092V18.5449H94.4092V19.0449ZM94.4092 23V23.5H94.9092V23H94.4092ZM79.7168 23H79.2168V23.5H79.7168V23ZM79.7168 1.67188V1.17188H79.2168V1.67188H79.7168ZM94.4385 1.67188H94.9385V1.17188H94.4385V1.67188ZM94.4385 5.6416V6.1416H94.9385V5.6416H94.4385ZM84.8584 5.6416V5.1416H84.3584V5.6416H84.8584ZM84.8584 10.1387H84.3584V10.6387H84.8584V10.1387ZM92.9443 10.1387H93.4443V9.63867H92.9443V10.1387ZM113.54 5.6416V6.1416H114.04V5.6416H113.54ZM107.139 5.6416V5.1416H106.639V5.6416H107.139ZM113.54 1.67188H114.04V1.17188H113.54V1.67188ZM95.7129 1.67188V1.17188H95.2129V1.67188H95.7129ZM95.7129 5.6416H95.2129V6.1416H95.7129V5.6416ZM101.997 5.6416H102.497V5.1416H101.997V5.6416ZM101.997 23H101.497V23.5H101.997V23ZM107.139 23V23.5H107.639V23H107.139ZM119.59 12.9658L119.811 12.5176L119.81 12.517L119.59 12.9658ZM127.771 2.19922L127.976 1.74322L127.976 1.74322L127.771 2.19922ZM130.605 4.53564L130.189 4.81299L130.189 4.81299L130.605 4.53564ZM131.616 8V8.5H132.116V8H131.616ZM126.489 8H125.989V8.5H126.489V8ZM128.159 11.8086L127.909 12.2416L127.91 12.2418L128.159 11.8086ZM129.507 21.6963L129.809 22.095L129.809 22.095L129.507 21.6963ZM114.8 16.0859V15.5859H114.3V16.0859H114.8ZM119.956 16.0859H120.456V15.5859H119.956V16.0859ZM152.08 23V23.5H152.58V23H152.08ZM146.968 23H146.468V23.5H146.968V23ZM152.08 1.67188H152.58V1.17188H152.08V1.67188ZM146.968 1.67188V1.17188H146.468V1.67188H146.968ZM146.968 10.1387V10.6387H147.468V10.1387H146.968ZM139.395 10.1387H138.895V10.6387H139.395V10.1387ZM139.395 1.67188H139.895V1.17188H139.395V1.67188ZM134.253 1.67188V1.17188H133.753V1.67188H134.253ZM134.253 23H133.753V23.5H134.253V23ZM139.395 23V23.5H139.895V23H139.395ZM139.395 14.0938V13.5938H138.895V14.0938H139.395ZM146.968 14.0938H147.468V13.5938H146.968V14.0938ZM154.731 13.1123L154.231 13.1123L154.232 13.122L154.731 13.1123ZM159.177 2.68262L159.437 3.10994L159.437 3.10994L159.177 2.68262ZM173.394 11.7939L173.894 11.7939L173.894 11.7916L173.394 11.7939ZM168.164 12.8633L168.664 12.8656V12.8633H168.164ZM159.961 12.7754L159.461 12.7707V12.7754H159.961ZM159.976 11.208L159.476 11.1891L159.476 11.1962L159.476 11.2033L159.976 11.208ZM181.187 13.9619V13.4619H180.687V13.9619H181.187ZM189.272 13.9619V14.4619H189.772V13.9619H189.272ZM181.187 19.0449H180.687V19.5449H181.187V19.0449ZM190.737 19.0449H191.237V18.5449H190.737V19.0449ZM190.737 23V23.5H191.237V23H190.737ZM176.045 23H175.545V23.5H176.045V23ZM176.045 1.67188V1.17188H175.545V1.67188H176.045ZM190.767 1.67188H191.267V1.17188H190.767V1.67188ZM190.767 5.6416V6.1416H191.267V5.6416H190.767ZM181.187 5.6416V5.1416H180.687V5.6416H181.187ZM181.187 10.1387H180.687V10.6387H181.187V10.1387ZM189.272 10.1387H189.772V9.63867H189.272V10.1387ZM197.314 16.0859H197.814V15.5859H197.314V16.0859ZM192.158 16.0859V15.5859H191.658V16.0859H192.158ZM205.518 11.8086L205.268 12.2416L205.268 12.2418L205.518 11.8086ZM203.848 8H203.348V8.5H203.848V8ZM208.975 8V8.5H209.475V8H208.975ZM207.964 4.53564L207.548 4.81299L207.548 4.81299L207.964 4.53564ZM196.948 12.9658L197.17 12.5176L197.169 12.517L196.948 12.9658ZM57.3149 19.9821C58.0997 18.7631 58.5232 17.3649 58.5952 15.8013L57.5962 15.7553C57.5315 17.1605 57.1542 18.3844 56.4741 19.4408L57.3149 19.9821ZM54.0246 22.8076C55.4252 22.146 56.5278 21.2048 57.3149 19.9821L56.4741 19.4408C55.7964 20.4934 54.8433 21.3149 53.5975 21.9034L54.0246 22.8076ZM49.2773 23.793C51.0386 23.793 52.6246 23.4688 54.0246 22.8076L53.5975 21.9034C52.351 22.4921 50.9146 22.793 49.2773 22.793V23.793ZM42.2813 20.8845C44.0024 22.835 46.3551 23.793 49.2773 23.793V22.793C46.5941 22.793 44.5328 21.9248 43.0312 20.2229L42.2813 20.8845ZM39.7393 12.8193C39.7393 16.2263 40.5639 18.9381 42.2813 20.8845L43.0312 20.2229C41.5259 18.5169 40.7393 16.0726 40.7393 12.8193H39.7393ZM39.7393 11.7646V12.8193H40.7393V11.7646H39.7393ZM40.877 6.06829C40.1132 7.71398 39.7393 9.61704 39.7393 11.7646H40.7393C40.7393 9.73255 41.0929 7.97842 41.7841 6.48932L40.877 6.06829ZM44.2077 2.222C42.7523 3.1316 41.6423 4.41958 40.877 6.06829L41.7841 6.48932C42.4739 5.00326 43.4586 3.86938 44.7377 3.07L44.2077 2.222ZM49.2188 0.864258C47.3392 0.864258 45.6632 1.31228 44.2077 2.222L44.7377 3.07C46.0165 2.27072 47.5045 1.86426 49.2188 1.86426V0.864258ZM55.7864 3.02983C54.1026 1.57091 51.8965 0.864258 49.2188 0.864258V1.86426C51.7168 1.86426 53.6708 2.5199 55.1316 3.7856L55.7864 3.02983ZM58.6376 8.99532C58.4132 6.49527 57.4717 4.49007 55.7864 3.02983L55.1316 3.7856C56.5908 5.04998 57.4365 6.79963 57.6417 9.08476L58.6376 8.99532ZM53.0127 9.54004H58.1396V8.54004H53.0127V9.54004ZM51.6926 6.61004C52.1657 7.04561 52.4757 7.81792 52.5129 9.05507L53.5125 9.02501C53.4716 7.66449 53.1273 6.57159 52.3699 5.87434L51.6926 6.61004ZM49.2188 5.89258C50.415 5.89258 51.2069 6.16286 51.6926 6.61004L52.3699 5.87434C51.6252 5.18869 50.5421 4.89258 49.2188 4.89258V5.89258ZM46.8307 7.09235C47.3215 6.30393 48.0846 5.89258 49.2188 5.89258V4.89258C47.7943 4.89258 46.6824 5.43825 45.9818 6.5639L46.8307 7.09235ZM45.9687 11.4201C45.9977 9.34494 46.3091 7.93039 46.8307 7.09235L45.9818 6.5639C45.312 7.63993 44.9984 9.28199 44.9688 11.4061L45.9687 11.4201ZM45.9688 12.9219V11.4131H44.9688V12.9219H45.9688ZM46.7573 17.5473C46.2571 16.6923 45.9688 15.1816 45.9688 12.9219H44.9688C44.9688 15.2129 45.2517 16.9541 45.8941 18.0523L46.7573 17.5473ZM49.2773 18.7646C48.0099 18.7646 47.2168 18.3329 46.7573 17.5473L45.8941 18.0523C46.5772 19.2199 47.7518 19.7646 49.2773 19.7646V18.7646ZM51.6548 18.0563C51.1529 18.5032 50.3866 18.7646 49.2773 18.7646V19.7646C50.5314 19.7646 51.5717 19.4694 52.3198 18.8031L51.6548 18.0563ZM52.4837 15.7622C52.447 16.8981 52.1389 17.6251 51.6548 18.0563L52.3198 18.8031C53.0857 18.121 53.4417 17.0804 53.4831 15.7944L52.4837 15.7622ZM58.0957 15.2783H52.9834V16.2783H58.0957V15.2783ZM37.4817 18.5148C38.2909 16.835 38.6885 14.9179 38.6885 12.7754H37.6885C37.6885 14.7931 37.3146 16.5576 36.5808 18.0809L37.4817 18.5148ZM34.0025 22.4238C35.5117 21.5058 36.6713 20.1971 37.4817 18.5148L36.5808 18.0809C35.8482 19.6017 34.8155 20.7588 33.4828 21.5694L34.0025 22.4238ZM28.8867 23.793C30.786 23.793 32.4962 23.34 34.0025 22.4238L33.4828 21.5694C32.1474 22.3817 30.6202 22.793 28.8867 22.793V23.793ZM23.7975 22.4705C25.2893 23.3562 26.9907 23.793 28.8867 23.793V22.793C27.1499 22.793 25.6287 22.3948 24.308 21.6106L23.7975 22.4705ZM20.3181 18.6848C21.1443 20.3167 22.3042 21.5838 23.7975 22.4705L24.308 21.6106C22.9888 20.8273 21.9563 19.7068 21.2102 18.2331L20.3181 18.6848ZM19.0265 13.122C19.0668 15.1972 19.493 17.0553 20.3181 18.6848L21.2102 18.2331C20.463 16.7572 20.0641 15.0509 20.0263 13.1026L19.0265 13.122ZM19.0264 11.9111V13.1123H20.0264V11.9111H19.0264ZM20.2255 6.16494C19.4212 7.84026 19.0264 9.75973 19.0264 11.9111H20.0264C20.0264 9.88282 20.3982 8.11581 21.127 6.59776L20.2255 6.16494ZM23.7126 2.25529C22.1942 3.17772 21.0315 4.48624 20.2255 6.16494L21.127 6.59776C21.8542 5.08308 22.8888 3.9258 24.2318 3.10994L23.7126 2.25529ZM28.8574 0.878906C26.9483 0.878906 25.2285 1.33433 23.7126 2.25529L24.2318 3.10994C25.5771 2.29261 27.1142 1.87891 28.8574 1.87891V0.878906ZM33.9508 2.24053C32.4496 1.32942 30.747 0.878906 28.8574 0.878906V1.87891C30.5812 1.87891 32.1012 2.28776 33.432 3.09541L33.9508 2.24053ZM37.4427 6.11545C36.6175 4.44967 35.4536 3.15256 33.9508 2.24053L33.432 3.09541C34.7613 3.90213 35.7995 5.05129 36.5466 6.55935L37.4427 6.11545ZM38.6885 11.7916C38.6784 9.67661 38.2676 7.78067 37.4427 6.11545L36.5466 6.55935C37.2939 8.06798 37.679 9.8097 37.6885 11.7963L38.6885 11.7916ZM38.6885 12.7754V11.7939H37.6885V12.7754H38.6885ZM8.48145 14.9707H5.69824V15.9707H8.48145V14.9707ZM12.6933 22.7764L8.92866 15.2471L8.03423 15.6943L11.7989 23.2236L12.6933 22.7764ZM17.7539 22.5H12.2461V23.5H17.7539V22.5ZM17.2539 22.7803V23H18.2539V22.7803H17.2539ZM12.8568 14.4116L17.3099 23.0102L18.1979 22.5503L13.7448 13.9517L12.8568 14.4116ZM15.6947 11.5467C15.1556 12.4232 14.2992 13.1559 13.0869 13.7297L13.5147 14.6336C14.861 13.9964 15.8844 13.1471 16.5465 12.0705L15.6947 11.5467ZM16.5215 8.11719C16.5215 9.53586 16.2345 10.6689 15.6947 11.5467L16.5465 12.0705C17.2079 10.9951 17.5215 9.66728 17.5215 8.11719H16.5215ZM14.5734 3.74923C15.8622 4.76432 16.5215 6.19702 16.5215 8.11719H17.5215C17.5215 5.93577 16.7551 4.19467 15.1922 2.96366L14.5734 3.74923ZM8.9502 2.17188C11.4107 2.17188 13.2648 2.71843 14.5734 3.74923L15.1922 2.96366C13.6493 1.74836 11.5483 1.17188 8.9502 1.17188V2.17188ZM0.556641 2.17188H8.9502V1.17188H0.556641V2.17188ZM1.05664 23V1.67188H0.0566406V23H1.05664ZM5.69824 22.5H0.556641V23.5H5.69824V22.5ZM5.19824 15.4707V23H6.19824V15.4707H5.19824ZM5.69824 12.001H8.9502V11.001H5.69824V12.001ZM5.19824 5.6416V11.501H6.19824V5.6416H5.19824ZM8.9502 5.1416H5.69824V6.1416H8.9502V5.1416ZM11.5094 6.0803C10.8882 5.42865 10.0055 5.1416 8.9502 5.1416V6.1416C9.82848 6.1416 10.4106 6.37701 10.7856 6.77029L11.5094 6.0803ZM12.3945 8.58594C12.3945 7.57589 12.1183 6.71912 11.5094 6.0803L10.7856 6.77029C11.1727 7.17639 11.3945 7.76004 11.3945 8.58594H12.3945ZM11.5151 11.0786C12.1217 10.448 12.3945 9.59417 12.3945 8.58594H11.3945C11.3945 9.41365 11.1742 9.99051 10.7944 10.3853L11.5151 11.0786ZM8.9502 12.001C10.0106 12.001 10.8968 11.7214 11.5151 11.0786L10.7944 10.3853C10.4264 10.7679 9.84292 11.001 8.9502 11.001V12.001ZM33.459 11.8818C33.459 9.72071 33.1004 7.99956 32.3173 6.78433L31.4767 7.32603C32.1096 8.30807 32.459 9.80466 32.459 11.8818H33.459ZM33.459 12.8633V11.8818H32.459V12.8633H33.459ZM32.3113 17.8927C33.0867 16.6758 33.449 14.9802 33.459 12.8656L32.459 12.8609C32.4494 14.8871 32.0989 16.3652 31.468 17.3553L32.3113 17.8927ZM28.8867 19.7793C30.3579 19.7793 31.5172 19.139 32.3113 17.8927L31.468 17.3553C30.8558 18.3161 30.0132 18.7793 28.8867 18.7793V19.7793ZM25.3705 17.8574C26.1588 19.1343 27.3537 19.7793 28.8867 19.7793V18.7793C27.6853 18.7793 26.8197 18.3013 26.2213 17.3321L25.3705 17.8574ZM24.2559 12.7754C24.2559 14.9087 24.6077 16.6219 25.3705 17.8574L26.2213 17.3321C25.5974 16.3214 25.2559 14.8218 25.2559 12.7754H24.2559ZM24.2705 11.2033L24.2559 12.7707L25.2558 12.7801L25.2705 11.2127L24.2705 11.2033ZM28.8574 4.90723C27.4229 4.90723 26.2776 5.45629 25.4934 6.56944C24.7314 7.65088 24.3457 9.2144 24.2709 11.1891L25.2701 11.2269C25.3418 9.33441 25.7105 7.99753 26.3108 7.14539C26.8889 6.32495 27.7138 5.90723 28.8574 5.90723V4.90723ZM32.3173 6.78433C31.5162 5.54134 30.3439 4.90723 28.8574 4.90723V5.90723C30.0076 5.90723 30.8617 6.37173 31.4767 7.32603L32.3173 6.78433ZM67.4088 14.7237L65.2994 17.0382L66.0385 17.7118L68.1479 15.3973L67.4088 14.7237ZM72.7534 22.7518L68.2123 14.8123L67.3443 15.3088L71.8853 23.2482L72.7534 22.7518ZM78.4131 22.5H72.3193V23.5H78.4131V22.5ZM70.7784 11.3646L77.9855 23.2591L78.8407 22.7409L71.6337 10.8464L70.7784 11.3646ZM78.0158 1.36833L70.8087 10.8019L71.6034 11.409L78.8104 1.97542L78.0158 1.36833ZM72.0557 2.17188H78.4131V1.17188H72.0557V2.17188ZM67.8682 8.64936L72.4678 1.95502L71.6436 1.38873L67.044 8.08306L67.8682 8.64936ZM66.0864 11.3514L67.8735 8.64147L67.0386 8.09095L65.2515 10.8009L66.0864 11.3514ZM65.1689 1.67188V11.0762H66.1689V1.67188H65.1689ZM60.5273 2.17188H65.6689V1.17188H60.5273V2.17188ZM61.0273 23V1.67188H60.0273V23H61.0273ZM65.6689 22.5H60.5273V23.5H65.6689V22.5ZM65.1689 17.375V23H66.1689V17.375H65.1689ZM84.8584 14.4619H92.9443V13.4619H84.8584V14.4619ZM85.3584 19.0449V13.9619H84.3584V19.0449H85.3584ZM94.4092 18.5449H84.8584V19.5449H94.4092V18.5449ZM94.9092 23V19.0449H93.9092V23H94.9092ZM79.7168 23.5H94.4092V22.5H79.7168V23.5ZM79.2168 1.67188V23H80.2168V1.67188H79.2168ZM94.4385 1.17188H79.7168V2.17188H94.4385V1.17188ZM94.9385 5.6416V1.67188H93.9385V5.6416H94.9385ZM84.8584 6.1416H94.4385V5.1416H84.8584V6.1416ZM85.3584 10.1387V5.6416H84.3584V10.1387H85.3584ZM92.9443 9.63867H84.8584V10.6387H92.9443V9.63867ZM93.4443 13.9619V10.1387H92.4443V13.9619H93.4443ZM113.54 5.1416H107.139V6.1416H113.54V5.1416ZM113.04 1.67188V5.6416H114.04V1.67188H113.04ZM95.7129 2.17188H113.54V1.17188H95.7129V2.17188ZM96.2129 5.6416V1.67188H95.2129V5.6416H96.2129ZM101.997 5.1416H95.7129V6.1416H101.997V5.1416ZM102.497 23V5.6416H101.497V23H102.497ZM107.139 22.5H101.997V23.5H107.139V22.5ZM106.639 5.6416V23H107.639V5.6416H106.639ZM125.367 15.9658C125.764 16.2797 125.975 16.7131 125.975 17.3311H126.975C126.975 16.4451 126.653 15.7067 125.986 15.1807L125.367 15.9658ZM122.712 14.7435C124.041 15.1899 124.906 15.6025 125.367 15.9658L125.986 15.1807C125.382 14.7041 124.377 14.2476 123.03 13.7955L122.712 14.7435ZM119.368 13.4141C120.245 13.8475 121.362 14.2902 122.712 14.7435L123.03 13.7955C121.704 13.3504 120.634 12.924 119.811 12.5176L119.368 13.4141ZM114.944 7.37012C114.944 9.99291 116.495 12.0028 119.369 13.4146L119.81 12.517C117.157 11.214 115.944 9.49344 115.944 7.37012H114.944ZM116.079 3.93959C115.322 4.93371 114.944 6.08371 114.944 7.37012H115.944C115.944 6.29323 116.255 5.35829 116.875 4.54576L116.079 3.93959ZM119.214 1.66894C117.887 2.19887 116.833 2.95141 116.079 3.93959L116.875 4.54576C117.499 3.72729 118.393 3.0736 119.585 2.59766L119.214 1.66894ZM123.647 0.878906C122.022 0.878906 120.541 1.13903 119.214 1.66894L119.585 2.59766C120.777 2.12171 122.129 1.87891 123.647 1.87891V0.878906ZM127.976 1.74322C126.687 1.1633 125.241 0.878906 123.647 0.878906V1.87891C125.121 1.87891 126.424 2.14138 127.566 2.65521L127.976 1.74322ZM131.021 4.2583C130.291 3.16183 129.269 2.32476 127.976 1.74322L127.566 2.65521C128.705 3.16744 129.573 3.88797 130.189 4.81299L131.021 4.2583ZM132.116 8C132.116 6.60962 131.754 5.35695 131.021 4.2583L130.189 4.81299C130.805 5.73584 131.116 6.79271 131.116 8H132.116ZM126.489 8.5H131.616V7.5H126.489V8.5ZM125.357 6.35033C125.761 6.71401 125.989 7.2397 125.989 8H126.989C126.989 7.02201 126.685 6.20006 126.025 5.6067L125.357 6.35033ZM123.53 5.76074C124.349 5.76074 124.939 5.97473 125.357 6.35033L126.025 5.6067C125.379 5.02526 124.528 4.76074 123.53 4.76074V5.76074ZM121.658 6.26645C122.076 5.94824 122.682 5.76074 123.53 5.76074V4.76074C122.543 4.76074 121.699 4.97851 121.052 5.47085L121.658 6.26645ZM121.057 7.41406C121.057 6.95746 121.24 6.58488 121.658 6.26645L121.052 5.47085C120.406 5.96298 120.057 6.62065 120.057 7.41406H121.057ZM121.738 8.50248C121.23 8.11751 121.057 7.75427 121.057 7.41406H120.057C120.057 8.16761 120.469 8.79557 121.133 9.29928L121.738 8.50248ZM124.679 9.80178C123.212 9.33064 122.252 8.89232 121.738 8.50248L121.133 9.29928C121.791 9.79812 122.891 10.2778 124.373 10.7539L124.679 9.80178ZM128.409 11.3756C127.421 10.8053 126.175 10.2822 124.679 9.80178L124.373 10.7539C125.827 11.2208 127.002 11.7181 127.909 12.2416L128.409 11.3756ZM132.116 17.3018C132.116 14.7609 130.842 12.7778 128.409 11.3754L127.91 12.2418C130.085 13.4956 131.116 15.1746 131.116 17.3018H132.116ZM129.809 22.095C131.348 20.9298 132.116 19.3131 132.116 17.3018H131.116C131.116 19.0209 130.478 20.3338 129.205 21.2976L129.809 22.095ZM123.721 23.793C126.239 23.793 128.287 23.2465 129.809 22.095L129.205 21.2976C127.914 22.275 126.105 22.793 123.721 22.793V23.793ZM118.824 22.82C120.296 23.4717 121.931 23.793 123.721 23.793V22.793C122.053 22.793 120.558 22.4941 119.228 21.9056L118.824 22.82ZM115.444 20.0883C116.214 21.2619 117.351 22.1684 118.824 22.82L119.228 21.9056C117.898 21.317 116.926 20.5243 116.28 19.5397L115.444 20.0883ZM114.3 16.0859C114.3 17.5806 114.678 18.9204 115.444 20.0883L116.28 19.5397C115.63 18.5493 115.3 17.4038 115.3 16.0859H114.3ZM119.956 15.5859H114.8V16.5859H119.956V15.5859ZM121.18 18.2443C120.73 17.8316 120.456 17.1493 120.456 16.0859H119.456C119.456 17.3078 119.773 18.31 120.504 18.9812L121.18 18.2443ZM123.721 18.9258C122.441 18.9258 121.635 18.6611 121.18 18.2443L120.504 18.9812C121.232 19.6484 122.344 19.9258 123.721 19.9258V18.9258ZM125.437 18.475C125.057 18.7568 124.503 18.9258 123.721 18.9258V19.9258C124.637 19.9258 125.426 19.7286 126.033 19.2779L125.437 18.475ZM125.975 17.3311C125.975 17.8518 125.791 18.2117 125.437 18.475L126.033 19.2779C126.665 18.8088 126.975 18.1384 126.975 17.3311H125.975ZM152.08 22.5H146.968V23.5H152.08V22.5ZM151.58 1.67188V23H152.58V1.67188H151.58ZM146.968 2.17188H152.08V1.17188H146.968V2.17188ZM147.468 10.1387V1.67188H146.468V10.1387H147.468ZM139.395 10.6387H146.968V9.63867H139.395V10.6387ZM138.895 1.67188V10.1387H139.895V1.67188H138.895ZM134.253 2.17188H139.395V1.17188H134.253V2.17188ZM134.753 23V1.67188H133.753V23H134.753ZM139.395 22.5H134.253V23.5H139.395V22.5ZM138.895 14.0938V23H139.895V14.0938H138.895ZM146.968 13.5938H139.395V14.5938H146.968V13.5938ZM147.468 23V14.0938H146.468V23H147.468ZM172.687 18.5148C173.496 16.835 173.894 14.9179 173.894 12.7754H172.894C172.894 14.7931 172.52 16.5576 171.786 18.0809L172.687 18.5148ZM169.208 22.4238C170.717 21.5058 171.876 20.1971 172.687 18.5148L171.786 18.0809C171.053 19.6017 170.021 20.7588 168.688 21.5694L169.208 22.4238ZM164.092 23.793C165.991 23.793 167.701 23.34 169.208 22.4238L168.688 21.5694C167.352 22.3817 165.825 22.793 164.092 22.793V23.793ZM159.003 22.4705C160.494 23.3562 162.196 23.793 164.092 23.793V22.793C162.355 22.793 160.834 22.3948 159.513 21.6106L159.003 22.4705ZM155.523 18.6848C156.349 20.3167 157.509 21.5838 159.003 22.4705L159.513 21.6106C158.194 20.8273 157.161 19.7068 156.415 18.2331L155.523 18.6848ZM154.232 13.122C154.272 15.1972 154.698 17.0553 155.523 18.6848L156.415 18.2331C155.668 16.7572 155.269 15.0509 155.231 13.1026L154.232 13.122ZM154.231 11.9111V13.1123H155.231V11.9111H154.231ZM155.431 6.16494C154.626 7.84026 154.231 9.75973 154.231 11.9111H155.231C155.231 9.88282 155.603 8.11581 156.332 6.59776L155.431 6.16494ZM158.918 2.25529C157.399 3.17772 156.237 4.48624 155.431 6.16494L156.332 6.59776C157.059 5.08308 158.094 3.9258 159.437 3.10994L158.918 2.25529ZM164.062 0.878906C162.153 0.878906 160.434 1.33433 158.918 2.25529L159.437 3.10994C160.782 2.29261 162.319 1.87891 164.062 1.87891V0.878906ZM169.156 2.24053C167.655 1.32942 165.952 0.878906 164.062 0.878906V1.87891C165.786 1.87891 167.306 2.28776 168.637 3.09541L169.156 2.24053ZM172.648 6.11545C171.823 4.44967 170.659 3.15256 169.156 2.24053L168.637 3.09541C169.966 3.90213 171.005 5.05129 171.752 6.55935L172.648 6.11545ZM173.894 11.7916C173.883 9.67661 173.473 7.78067 172.648 6.11545L171.752 6.55935C172.499 8.06798 172.884 9.8097 172.894 11.7963L173.894 11.7916ZM173.894 12.7754V11.7939H172.894V12.7754H173.894ZM168.664 11.8818C168.664 9.72071 168.305 7.99956 167.522 6.78433L166.682 7.32603C167.315 8.30807 167.664 9.80466 167.664 11.8818H168.664ZM168.664 12.8633V11.8818H167.664V12.8633H168.664ZM167.516 17.8927C168.292 16.6758 168.654 14.9802 168.664 12.8656L167.664 12.8609C167.655 14.8871 167.304 16.3652 166.673 17.3553L167.516 17.8927ZM164.092 19.7793C165.563 19.7793 166.722 19.139 167.516 17.8927L166.673 17.3553C166.061 18.3161 165.218 18.7793 164.092 18.7793V19.7793ZM160.576 17.8574C161.364 19.1343 162.559 19.7793 164.092 19.7793V18.7793C162.89 18.7793 162.025 18.3013 161.426 17.3321L160.576 17.8574ZM159.461 12.7754C159.461 14.9087 159.813 16.6219 160.576 17.8574L161.426 17.3321C160.802 16.3214 160.461 14.8218 160.461 12.7754H159.461ZM159.476 11.2033L159.461 12.7707L160.461 12.7801L160.476 11.2127L159.476 11.2033ZM164.062 4.90723C162.628 4.90723 161.483 5.45629 160.698 6.56944C159.937 7.65088 159.551 9.2144 159.476 11.1891L160.475 11.2269C160.547 9.33441 160.916 7.99753 161.516 7.14539C162.094 6.32495 162.919 5.90723 164.062 5.90723V4.90723ZM167.522 6.78433C166.721 5.54134 165.549 4.90723 164.062 4.90723V5.90723C165.213 5.90723 166.067 6.37173 166.682 7.32603L167.522 6.78433ZM181.187 14.4619H189.272V13.4619H181.187V14.4619ZM181.687 19.0449V13.9619H180.687V19.0449H181.687ZM190.737 18.5449H181.187V19.5449H190.737V18.5449ZM191.237 23V19.0449H190.237V23H191.237ZM176.045 23.5H190.737V22.5H176.045V23.5ZM175.545 1.67188V23H176.545V1.67188H175.545ZM190.767 1.17188H176.045V2.17188H190.767V1.17188ZM191.267 5.6416V1.67188H190.267V5.6416H191.267ZM181.187 6.1416H190.767V5.1416H181.187V6.1416ZM181.687 10.1387V5.6416H180.687V10.1387H181.687ZM189.272 9.63867H181.187V10.6387H189.272V9.63867ZM189.772 13.9619V10.1387H188.772V13.9619H189.772ZM204.333 17.3311C204.333 16.4451 204.011 15.7067 203.344 15.1807L202.725 15.9658C203.123 16.2797 203.333 16.7131 203.333 17.3311H204.333ZM203.391 19.2779C204.023 18.8088 204.333 18.1384 204.333 17.3311H203.333C203.333 17.8518 203.15 18.2117 202.795 18.475L203.391 19.2779ZM201.079 19.9258C201.996 19.9258 202.784 19.7286 203.391 19.2779L202.795 18.475C202.416 18.7568 201.862 18.9258 201.079 18.9258V19.9258ZM197.863 18.9812C198.59 19.6484 199.703 19.9258 201.079 19.9258V18.9258C199.799 18.9258 198.993 18.6611 198.539 18.2443L197.863 18.9812ZM196.814 16.0859C196.814 17.3078 197.131 18.31 197.863 18.9812L198.539 18.2443C198.089 17.8316 197.814 17.1493 197.814 16.0859H196.814ZM192.158 16.5859H197.314V15.5859H192.158V16.5859ZM193.638 19.5397C192.989 18.5493 192.658 17.4038 192.658 16.0859H191.658C191.658 17.5806 192.036 18.9204 192.802 20.0883L193.638 19.5397ZM196.587 21.9056C195.257 21.317 194.284 20.5243 193.638 19.5397L192.802 20.0883C193.572 21.2619 194.709 22.1684 196.182 22.82L196.587 21.9056ZM201.079 22.793C199.411 22.793 197.917 22.4941 196.587 21.9056L196.182 22.82C197.655 23.4717 199.29 23.793 201.079 23.793V22.793ZM206.563 21.2976C205.272 22.275 203.463 22.793 201.079 22.793V23.793C203.598 23.793 205.646 23.2465 207.167 22.095L206.563 21.2976ZM208.475 17.3018C208.475 19.0209 207.837 20.3338 206.563 21.2976L207.167 22.095C208.706 20.9298 209.475 19.3131 209.475 17.3018H208.475ZM205.268 12.2418C207.444 13.4956 208.475 15.1746 208.475 17.3018H209.475C209.475 14.7609 208.201 12.7778 205.767 11.3754L205.268 12.2418ZM201.732 10.7539C203.185 11.2208 204.361 11.7181 205.268 12.2416L205.768 11.3756C204.78 10.8053 203.533 10.2822 202.038 9.80179L201.732 10.7539ZM198.492 9.29928C199.15 9.79812 200.249 10.2778 201.732 10.7539L202.038 9.80179C200.571 9.33064 199.61 8.89231 199.096 8.50248L198.492 9.29928ZM197.415 7.41406C197.415 8.16761 197.828 8.79557 198.492 9.29928L199.096 8.50248C198.588 8.11751 198.415 7.75427 198.415 7.41406H197.415ZM198.41 5.47085C197.764 5.96298 197.415 6.62065 197.415 7.41406H198.415C198.415 6.95746 198.598 6.58488 199.016 6.26645L198.41 5.47085ZM200.889 4.76074C199.901 4.76074 199.057 4.97851 198.41 5.47085L199.016 6.26645C199.434 5.94824 200.04 5.76074 200.889 5.76074V4.76074ZM203.384 5.6067C202.737 5.02526 201.886 4.76074 200.889 4.76074V5.76074C201.708 5.76074 202.297 5.97473 202.715 6.35033L203.384 5.6067ZM204.348 8C204.348 7.02201 204.044 6.20006 203.384 5.6067L202.715 6.35033C203.12 6.71401 203.348 7.2397 203.348 8H204.348ZM208.975 7.5H203.848V8.5H208.975V7.5ZM207.548 4.81299C208.163 5.73584 208.475 6.79271 208.475 8H209.475C209.475 6.60962 209.112 5.35695 208.38 4.2583L207.548 4.81299ZM204.924 2.65521C206.063 3.16744 206.931 3.88797 207.548 4.81299L208.38 4.2583C207.649 3.16183 206.627 2.32476 205.335 1.74322L204.924 2.65521ZM201.006 1.87891C202.479 1.87891 203.782 2.14138 204.924 2.65521L205.335 1.74322C204.045 1.1633 202.599 0.878906 201.006 0.878906V1.87891ZM196.943 2.59766C198.135 2.12171 199.487 1.87891 201.006 1.87891V0.878906C199.38 0.878906 197.9 1.13903 196.572 1.66894L196.943 2.59766ZM194.233 4.54576C194.857 3.72729 195.751 3.0736 196.943 2.59766L196.572 1.66894C195.245 2.19887 194.191 2.95141 193.438 3.93959L194.233 4.54576ZM193.303 7.37012C193.303 6.29323 193.614 5.35829 194.233 4.54576L193.438 3.93959C192.68 4.93371 192.303 6.08371 192.303 7.37012H193.303ZM197.169 12.517C194.516 11.214 193.303 9.49344 193.303 7.37012H192.303C192.303 9.99291 193.853 12.0028 196.728 13.4146L197.169 12.517ZM200.389 13.7955C199.063 13.3504 197.992 12.924 197.17 12.5176L196.727 13.4141C197.604 13.8475 198.72 14.2902 200.07 14.7435L200.389 13.7955ZM203.344 15.1807C202.74 14.7041 201.735 14.2476 200.389 13.7955L200.07 14.7435C201.4 15.1899 202.265 15.6025 202.725 15.9658L203.344 15.1807Z" fill="black" fill-opacity="0.2"/>
</svg>
