<svg width="27" height="28" viewBox="0 0 27 28" fill="none" xmlns="http://www.w3.org/2000/svg">
<path d="M26.9687 5.99148C26.8748 5.87915 26.7574 5.7888 26.6248 5.72681C26.4922 5.66482 26.3476 5.63271 26.2012 5.63273H6.03617L5.42492 2.27523C5.3412 1.8144 5.0984 1.39757 4.73884 1.09741C4.37929 0.797249 3.9258 0.6328 3.45742 0.632732H1.20117C0.935955 0.632732 0.681601 0.738089 0.494065 0.925626C0.306529 1.11316 0.201172 1.36752 0.201172 1.63273C0.201172 1.89795 0.306529 2.1523 0.494065 2.33984C0.681601 2.52738 0.935955 2.63273 1.20117 2.63273H3.45117L6.64617 20.169C6.74029 20.6891 6.97012 21.175 7.31242 21.5777C6.83998 22.019 6.49898 22.5825 6.32724 23.2057C6.1555 23.829 6.15973 24.4876 6.33946 25.1086C6.51919 25.7296 6.86739 26.2886 7.34545 26.7238C7.82352 27.159 8.41277 27.4532 9.04787 27.574C9.68296 27.6947 10.3391 27.6372 10.9435 27.4078C11.5479 27.1784 12.0769 26.786 12.472 26.2743C12.867 25.7626 13.1126 25.1515 13.1815 24.5087C13.2505 23.8659 13.14 23.2166 12.8624 22.6327H18.5399C18.3162 23.1011 18.2004 23.6137 18.2012 24.1327C18.2012 24.825 18.4064 25.5017 18.791 26.0772C19.1756 26.6528 19.7222 27.1014 20.3618 27.3663C21.0013 27.6312 21.7051 27.7005 22.384 27.5655C23.0629 27.4304 23.6866 27.0971 24.176 26.6076C24.6655 26.1181 24.9989 25.4945 25.1339 24.8155C25.269 24.1366 25.1997 23.4329 24.9347 22.7933C24.6698 22.1538 24.2212 21.6072 23.6457 21.2226C23.0701 20.838 22.3934 20.6327 21.7012 20.6327H9.59742C9.36323 20.6327 9.13649 20.5505 8.95671 20.4004C8.77693 20.2503 8.65553 20.0419 8.61367 19.8115L8.21742 17.6327H22.7174C23.42 17.6326 24.1002 17.386 24.6396 16.9357C25.1789 16.4855 25.5431 15.8602 25.6687 15.169L27.1887 6.81148C27.2144 6.66703 27.208 6.51869 27.17 6.37698C27.132 6.23526 27.0633 6.10365 26.9687 5.99148ZM11.2012 24.1327C11.2012 24.4294 11.1132 24.7194 10.9484 24.9661C10.7836 25.2128 10.5493 25.405 10.2752 25.5186C10.0011 25.6321 9.69951 25.6618 9.40854 25.6039C9.11756 25.546 8.85029 25.4032 8.64051 25.1934C8.43073 24.9836 8.28787 24.7163 8.22999 24.4254C8.17212 24.1344 8.20182 23.8328 8.31535 23.5587C8.42888 23.2846 8.62114 23.0504 8.86782 22.8855C9.11449 22.7207 9.4045 22.6327 9.70117 22.6327C10.099 22.6327 10.4805 22.7908 10.7618 23.0721C11.0431 23.3534 11.2012 23.7349 11.2012 24.1327ZM23.2012 24.1327C23.2012 24.4294 23.1132 24.7194 22.9484 24.9661C22.7836 25.2128 22.5493 25.405 22.2752 25.5186C22.0011 25.6321 21.6995 25.6618 21.4085 25.6039C21.1176 25.546 20.8503 25.4032 20.6405 25.1934C20.4307 24.9836 20.2879 24.7163 20.23 24.4254C20.1721 24.1344 20.2018 23.8328 20.3154 23.5587C20.4289 23.2846 20.6211 23.0504 20.8678 22.8855C21.1145 22.7207 21.4045 22.6327 21.7012 22.6327C22.099 22.6327 22.4805 22.7908 22.7618 23.0721C23.0431 23.3534 23.2012 23.7349 23.2012 24.1327ZM23.7012 14.8115C23.6592 15.0425 23.5372 15.2514 23.3567 15.4016C23.1761 15.5518 22.9485 15.6336 22.7137 15.6327H7.85367L6.39992 7.63273H25.0024L23.7012 14.8115Z" fill="white"/>
</svg>
